<?xml version="1.0" encoding="UTF-8"?><svg id="b" xmlns="http://www.w3.org/2000/svg" viewBox="0 0 185.19 91.88"><g id="c"><path d="M24,35.34c6.43-3.76,12.84-7.52,19.26-11.27,3.06-1.79,6.1-3.62,9.18-5.36.81-.46,1.07-.94.93-1.87C51.93,7.41,59.42-.7,68.84.05c5.86.46,11.56,5.9,12.37,11.8.99,7.16-2.35,13.17-8.93,16.19-.43.2-.88.9-.88,1.37-.05,11.1-.03,22.2-.05,33.31,0,.82.26,1.17,1.04,1.46,6.34,2.37,10.24,9.13,9.05,15.57-1.32,7.13-7.4,12.24-14.46,12.14-6.79-.1-12.4-4.99-13.54-11.94-.24-1.48-.14-3.03-.03-4.54.06-.87,0-1.43-.85-1.93-9.29-5.37-18.57-10.78-27.83-16.21-.65-.38-1.05-.36-1.66.12-4.34,3.46-9.18,4.26-14.27,2.04C3.78,57.23.78,53.28.13,47.79c-.75-6.3,1.84-11.11,7.21-14.23,5.34-3.1,10.66-2.56,15.66,1.06.32.23.63.46,1,.72ZM63.52,46.16c0-5.53-.02-11.06.02-16.58,0-.8-.22-1.18-.98-1.54-1.33-.62-2.62-1.37-3.79-2.25-.75-.57-1.22-.63-2.04-.15-9.27,5.42-18.56,10.81-27.87,16.16-.91.52-.99,1.08-.89,2.02.15,1.51.21,3.06.02,4.55-.13,1.03.13,1.51.96,1.99,9.16,5.31,18.32,10.63,27.44,16,.97.57,1.56.49,2.44-.17,1.09-.82,2.32-1.51,3.58-2.01.91-.37,1.14-.83,1.13-1.74-.04-5.43-.02-10.86-.02-16.29ZM8,45.87c-.09,3.6,2.63,6.53,6.11,6.59,3.44.06,6.4-2.77,6.44-6.16.04-3.49-2.77-6.41-6.28-6.52-3.34-.11-6.19,2.66-6.27,6.1ZM73.63,77.66c.02-3.63-2.69-6.41-6.27-6.41-3.52,0-6.24,2.71-6.29,6.25-.04,3.44,2.79,6.33,6.21,6.36,3.51.03,6.31-2.72,6.34-6.2ZM61.07,14.39c-.02,3.52,2.73,6.37,6.16,6.36,3.48,0,6.26-2.81,6.24-6.31-.02-3.37-2.83-6.17-6.22-6.2-3.45-.03-6.15,2.66-6.18,6.15Z" style="fill:#f7374f; stroke-width:0px;"/><path d="M115.11,32.82c0,1.59-.33,3-.99,4.22-.66,1.22-1.6,2.18-2.8,2.88-1.21.7-2.63,1.04-4.27,1.04-.74,0-1.45-.05-2.15-.15-.7-.1-1.39-.27-2.08-.5-.69-.23-1.4-.56-2.14-.97v-6.18c1.01.68,2.04,1.21,3.1,1.59,1.06.38,2.03.57,2.91.57.5,0,.92-.08,1.24-.25.32-.16.56-.39.72-.68.16-.29.24-.62.24-.99s-.06-.72-.19-1.04c-.13-.32-.42-.68-.86-1.07-.44-.39-1.14-.88-2.07-1.47-.75-.48-1.43-.96-2.04-1.45-.61-.49-1.13-1.02-1.55-1.6-.43-.58-.75-1.25-.98-2.01-.23-.76-.34-1.66-.34-2.69,0-1.52.3-2.84.9-3.97.6-1.12,1.47-2,2.63-2.62,1.16-.62,2.58-.93,4.27-.93,1.06,0,2.14.15,3.21.46,1.08.3,2.17.77,3.27,1.39l-1.63,5.35c-.89-.56-1.71-.98-2.48-1.25-.76-.27-1.47-.4-2.12-.4-.43,0-.79.07-1.06.22-.28.15-.48.34-.61.59s-.19.53-.19.84c0,.46.08.85.23,1.18.15.33.47.68.94,1.04s1.2.85,2.17,1.45c1.03.63,1.9,1.3,2.61,2,.71.7,1.24,1.49,1.61,2.35s.54,1.87.54,3.02Z" style="stroke-width:0px;"/><path d="M136.93,27.75c0,2.15-.21,4.05-.62,5.7s-1.04,3.03-1.86,4.14-1.84,1.96-3.05,2.53c-1.21.57-2.61.85-4.2.85s-2.98-.29-4.2-.86-2.24-1.42-3.07-2.54-1.46-2.5-1.88-4.15c-.42-1.65-.63-3.55-.63-5.71,0-2.86.37-5.26,1.11-7.22.74-1.95,1.84-3.44,3.3-4.44s3.24-1.51,5.36-1.51,3.92.5,5.36,1.49c1.45.99,2.54,2.47,3.27,4.43.74,1.96,1.11,4.39,1.11,7.28ZM123.76,27.75c0,1.74.13,3.2.39,4.37.26,1.17.64,2.05,1.15,2.62.51.58,1.14.87,1.89.87s1.41-.28,1.9-.84c.5-.56.87-1.42,1.11-2.59s.36-2.64.36-4.43c0-2.71-.28-4.72-.83-6.01-.56-1.29-1.4-1.94-2.54-1.94-.75,0-1.38.3-1.89.89s-.89,1.47-1.15,2.65c-.26,1.18-.39,2.65-.39,4.42Z" style="stroke-width:0px;"/><path d="M140.46,40.62V14.95h6.11v20.42h6.69v5.25h-12.8Z" style="stroke-width:0px;"/><path d="M155.86,40.62V14.95h6.11v25.67h-6.11Z" style="stroke-width:0px;"/><path d="M183.79,27.24c0,2.84-.43,5.26-1.29,7.25s-2.1,3.51-3.73,4.56c-1.63,1.05-3.6,1.57-5.93,1.57h-6.62V14.95h7.04c2.25,0,4.15.47,5.72,1.42,1.57.95,2.76,2.33,3.58,4.16s1.23,4.06,1.23,6.71ZM177.47,27.49c0-1.73-.16-3.13-.48-4.2-.32-1.06-.8-1.84-1.44-2.33-.64-.49-1.44-.73-2.4-.73h-.82v15.06h.47c1.62,0,2.8-.63,3.55-1.9.75-1.26,1.12-3.24,1.12-5.92Z" style="stroke-width:0px;"/><path d="M111,72.3h-6.07v-20.38h-4.63v-5.28h15.31v5.28h-4.6v20.38Z" style="stroke-width:0px;"/><path d="M130.7,72.3h-12.36v-25.67h12.36v5.18h-6.25v4.63h5.79v5.18h-5.79v5.42h6.25v5.25Z" style="stroke-width:0px;"/><path d="M146.24,72.3l-.97-5h-5.55l-.97,5h-6.62l6.25-25.67h8.06l6.34,25.67h-6.55ZM144.32,62.04l-1.04-5.74c-.12-.64-.23-1.27-.32-1.88-.1-.61-.19-1.19-.26-1.75-.08-.56-.14-1.07-.2-1.55-.05.46-.11.96-.18,1.51-.08.55-.17,1.13-.27,1.73-.1.6-.22,1.23-.33,1.87l-1.09,5.81h3.7Z" style="stroke-width:0px;"/><path d="M164.9,72.3l-4.42-17.26h-.14c.06.77.11,1.52.15,2.24s.07,1.4.1,2.05c.02.64.04,1.25.04,1.83v11.15h-5.71v-25.67h8.37l3.98,15.41h.11l4-15.41h8.3v25.67h-5.86v-11.25c0-.64.01-1.28.04-1.92.02-.64.05-1.3.09-1.98.04-.68.08-1.38.12-2.11h-.14l-4.49,17.26h-4.53Z" style="stroke-width:0px;"/></g></svg>