<svg width="208" height="28" viewBox="0 0 208 28" fill="none" xmlns="http://www.w3.org/2000/svg">
<path d="M41.8535 21.1499C40.7901 20.8491 39.9353 20.4564 39.2891 19.9717L40.4212 17.5182C41.0394 17.9607 41.7721 18.3161 42.6243 18.5846C43.4766 18.8531 44.3263 18.9873 45.1786 18.9873C46.125 18.9873 46.8271 18.8506 47.28 18.5746C47.7328 18.2987 47.9592 17.9333 47.9592 17.4784C47.9592 17.1428 47.8244 16.8644 47.5573 16.6432C47.2901 16.422 46.9467 16.2455 46.5269 16.1112C46.1071 15.977 45.5424 15.8303 44.8275 15.6688C43.7285 15.4152 42.8304 15.1592 42.1308 14.9031C41.4312 14.6496 40.8308 14.2394 40.3296 13.6752C39.8284 13.1109 39.5791 12.3602 39.5791 11.4206C39.5791 10.6027 39.8055 9.86198 40.2584 9.19827C40.7112 8.53457 41.393 8.00759 42.3063 7.6198C43.2196 7.22954 44.3339 7.03564 45.6518 7.03564C46.5702 7.03564 47.4708 7.14253 48.3485 7.3588C49.2262 7.57257 49.997 7.88081 50.6559 8.28351L49.6256 10.7593C48.295 10.0211 46.962 9.65317 45.6314 9.65317C44.6977 9.65317 44.0083 9.79983 43.5631 10.0956C43.1179 10.3914 42.894 10.7792 42.894 11.264C42.894 11.7462 43.1509 12.1066 43.6674 12.3403C44.1813 12.5765 44.9674 12.8076 46.0257 13.0338C47.1248 13.2899 48.0228 13.5434 48.7224 13.7995C49.4221 14.0555 50.0225 14.4557 50.5236 15.0075C51.0248 15.5569 51.2741 16.3026 51.2741 17.2398C51.2741 18.0452 51.0452 18.7785 50.5847 19.4422C50.1242 20.1059 49.4348 20.6329 48.5138 21.0207C47.5929 21.4084 46.476 21.6048 45.1582 21.6048C44.021 21.6023 42.9194 21.4532 41.8535 21.1499Z" fill="#2E96FF"/>
<path d="M60.4797 20.8385C60.1643 21.0672 59.775 21.2387 59.3171 21.3506C58.8566 21.4649 58.3732 21.5221 57.8644 21.5221C56.5466 21.5221 55.5264 21.194 54.8065 20.5352C54.0865 19.879 53.7252 18.912 53.7252 17.6368V13.1897H52.0156V10.776H53.7252V8.14111H56.9384V10.776H59.6987V13.1897H56.9384V17.597C56.9384 18.0544 57.058 18.4049 57.2996 18.6535C57.5388 18.9021 57.8797 19.0264 58.3198 19.0264C58.8286 19.0264 59.2611 18.8921 59.6173 18.6237L60.4797 20.8385Z" fill="#2E96FF"/>
<path d="M66.9142 10.7796C67.5655 10.5112 68.3185 10.377 69.1682 10.377V13.2754C68.812 13.248 68.5704 13.2356 68.4482 13.2356C67.5273 13.2356 66.8073 13.4867 66.2858 13.9913C65.7643 14.4934 65.5022 15.2491 65.5022 16.2558V21.3666H62.2891V10.541H65.3572V11.9703C65.7439 11.4434 66.2629 11.0481 66.9142 10.7796Z" fill="#2E96FF"/>
<path d="M81.7713 16.8335H73.3911C73.5412 17.5046 73.8999 18.0341 74.4622 18.4219C75.0244 18.8121 75.724 19.006 76.5636 19.006C77.1411 19.006 77.6524 18.9215 78.0976 18.755C78.5428 18.5884 78.9601 18.3224 79.3442 17.9595L81.0538 19.7717C80.0108 20.9375 78.4869 21.5216 76.4822 21.5216C75.233 21.5216 74.1264 21.283 73.1672 20.8082C72.2056 20.3334 71.4653 19.6722 70.9437 18.8271C70.4222 17.9819 70.1602 17.0224 70.1602 15.951C70.1602 14.8921 70.4171 13.935 70.9336 13.0849C71.4475 12.2323 72.1547 11.5686 73.0553 11.0938C73.9534 10.619 74.9608 10.3804 76.0726 10.3804C77.1563 10.3804 78.1383 10.6091 79.016 11.064C79.8937 11.5189 80.5832 12.1751 81.0844 13.0252C81.5855 13.8779 81.8349 14.8672 81.8349 15.9933C81.8323 16.0281 81.812 16.3114 81.7713 16.8335ZM74.2561 13.3534C73.7625 13.7561 73.4598 14.3054 73.3504 15.0039H78.8049C78.6955 14.3203 78.3927 13.7735 77.8992 13.3633C77.4056 12.9532 76.8002 12.7493 76.0878 12.7493C75.3602 12.7493 74.7496 12.9507 74.2561 13.3534Z" fill="#2E96FF"/>
<path d="M92.0887 11.5736C93.0071 12.3715 93.4676 13.5746 93.4676 15.1854V21.3626H90.4605V20.0153C89.855 21.022 88.7305 21.5241 87.0845 21.5241C86.2322 21.5241 85.4945 21.3825 84.8712 21.1016C84.2453 20.8207 83.7696 20.4304 83.4389 19.9357C83.1107 19.4386 82.9453 18.8768 82.9453 18.2454C82.9453 17.2387 83.332 16.4482 84.108 15.8715C84.8839 15.2948 86.0821 15.0064 87.7002 15.0064H90.2544C90.2544 14.3228 90.0407 13.7958 89.6158 13.428C89.191 13.0601 88.5524 12.8761 87.7002 12.8761C87.1099 12.8761 86.5299 12.9656 85.96 13.1471C85.3902 13.3285 84.9068 13.5721 84.5074 13.8804L83.3549 11.6879C83.9579 11.2728 84.6829 10.9496 85.5275 10.7234C86.3722 10.4947 87.2397 10.3804 88.1327 10.3804C89.8499 10.3779 91.1677 10.7756 92.0887 11.5736ZM89.3487 19.0384C89.7736 18.7898 90.0763 18.4244 90.2544 17.9421V16.836H88.0512C86.7334 16.836 86.0745 17.2585 86.0745 18.1037C86.0745 18.5064 86.2348 18.8246 86.5579 19.0582C86.881 19.2919 87.3236 19.4112 87.8859 19.4112C88.4379 19.4112 88.9239 19.2869 89.3487 19.0384Z" fill="#2E96FF"/>
<path d="M113.864 11.5708C114.681 12.3687 115.09 13.5668 115.09 15.1627V21.3598H111.877V15.6449C111.877 14.7874 111.694 14.146 111.333 13.7234C110.969 13.3009 110.45 13.0896 109.778 13.0896C109.023 13.0896 108.425 13.3282 107.987 13.803C107.547 14.2803 107.328 14.9862 107.328 15.9258V21.3573H104.115V15.6449C104.115 13.9422 103.416 13.0896 102.014 13.0896C101.273 13.0896 100.683 13.3282 100.243 13.803C99.803 14.2803 99.5842 14.9862 99.5842 15.9258V21.3573H96.3711V10.5317H99.4392V11.7796C99.8514 11.3247 100.355 10.9742 100.953 10.733C101.551 10.4919 102.205 10.3701 102.92 10.3701C103.703 10.3701 104.408 10.5218 105.041 10.8225C105.672 11.1233 106.181 11.5633 106.565 12.14C107.018 11.5757 107.59 11.1407 108.285 10.8325C108.977 10.5242 109.738 10.3701 110.559 10.3701C111.946 10.3751 113.047 10.7728 113.864 11.5708Z" fill="#2E96FF"/>
<path d="M123.198 10.2027H118.586V7.54785H131.146V10.2027H126.534V21.6298H123.198V10.2027Z" fill="#2E96FF"/>
<path d="M142.369 17.1054H133.989C134.139 17.7766 134.498 18.3061 135.06 18.6939C135.622 19.0841 136.322 19.278 137.161 19.278C137.739 19.278 138.25 19.1935 138.695 19.0269C139.14 18.8604 139.558 18.5944 139.942 18.2315L141.651 20.0436C140.608 21.2095 139.085 21.7936 137.08 21.7936C135.831 21.7936 134.724 21.555 133.765 21.0802C132.803 20.6054 132.063 19.9442 131.541 19.099C131.02 18.2539 130.758 17.2944 130.758 16.223C130.758 15.164 131.015 14.207 131.531 13.3569C132.045 12.5043 132.752 11.8406 133.653 11.3658C134.551 10.891 135.558 10.6523 136.67 10.6523C137.754 10.6523 138.736 10.881 139.614 11.3359C140.491 11.7908 141.181 12.4471 141.682 13.2972C142.183 14.1498 142.433 15.1392 142.433 16.2652C142.43 16.3025 142.41 16.5834 142.369 17.1054ZM134.854 13.6253C134.36 14.028 134.057 14.5774 133.948 15.2759H139.405C139.296 14.5923 138.993 14.0454 138.499 13.6353C138.006 13.2251 137.4 13.0213 136.688 13.0213C135.958 13.0213 135.347 13.2226 134.854 13.6253Z" fill="#2E96FF"/>
<path d="M144.574 6.70361H147.787V21.6332H144.574V6.70361Z" fill="#2E96FF"/>
<path d="M161.56 17.1054H153.18C153.33 17.7766 153.689 18.3061 154.251 18.6939C154.813 19.0841 155.513 19.278 156.353 19.278C156.93 19.278 157.441 19.1935 157.887 19.0269C158.332 18.8604 158.749 18.5944 159.133 18.2315L160.843 20.0436C159.8 21.2095 158.276 21.7936 156.271 21.7936C155.022 21.7936 153.915 21.555 152.956 21.0802C151.995 20.6054 151.254 19.9442 150.733 19.099C150.211 18.2539 149.949 17.2944 149.949 16.223C149.949 15.164 150.206 14.207 150.723 13.3569C151.237 12.5043 151.944 11.8406 152.844 11.3658C153.742 10.891 154.75 10.6523 155.862 10.6523C156.945 10.6523 157.927 10.881 158.805 11.3359C159.683 11.7908 160.372 12.4471 160.873 13.2972C161.375 14.1498 161.624 15.1392 161.624 16.2652C161.624 16.3025 161.604 16.5834 161.56 17.1054ZM154.045 13.6253C153.552 14.028 153.249 14.5774 153.139 15.2759H158.596C158.487 14.5923 158.184 14.0454 157.691 13.6353C157.197 13.2251 156.592 13.0213 155.879 13.0213C155.149 13.0213 154.539 13.2226 154.045 13.6253Z" fill="#2E96FF"/>
<path d="M165.934 21.0802C164.993 20.6054 164.26 19.9442 163.731 19.099C163.202 18.2539 162.938 17.2944 162.938 16.223C162.938 15.1491 163.202 14.1896 163.731 13.3469C164.26 12.5018 164.993 11.8406 165.934 11.3658C166.876 10.891 167.934 10.6523 169.117 10.6523C170.285 10.6523 171.302 10.891 172.175 11.3658C173.048 11.843 173.681 12.5217 174.08 13.4091L171.59 14.7166C171.012 13.7248 170.183 13.2276 169.099 13.2276C168.262 13.2276 167.568 13.4961 167.021 14.033C166.471 14.5699 166.196 15.3008 166.196 16.2255C166.196 17.1502 166.471 17.881 167.021 18.4179C167.57 18.9549 168.262 19.2233 169.099 19.2233C170.198 19.2233 171.028 18.7262 171.59 17.7343L174.08 19.0617C173.681 19.9193 173.048 20.5905 172.175 21.0727C171.302 21.555 170.285 21.7961 169.117 21.7961C167.937 21.7936 166.876 21.555 165.934 21.0802Z" fill="#2E96FF"/>
<path d="M177.921 21.0802C176.995 20.6054 176.27 19.9442 175.748 19.099C175.227 18.2539 174.965 17.2944 174.965 16.223C174.965 15.1491 175.224 14.1896 175.748 13.3469C176.27 12.5018 176.995 11.8406 177.921 11.3658C178.847 10.891 179.895 10.6523 181.06 10.6523C182.228 10.6523 183.271 10.891 184.19 11.3658C185.108 11.843 185.831 12.5018 186.352 13.3469C186.874 14.1921 187.136 15.1516 187.136 16.223C187.136 17.2968 186.874 18.2564 186.352 19.099C185.831 19.9442 185.111 20.6054 184.19 21.0802C183.269 21.5575 182.226 21.7936 181.06 21.7936C179.895 21.7936 178.847 21.555 177.921 21.0802ZM183.091 18.403C183.62 17.8586 183.884 17.1328 183.884 16.2205C183.884 15.3082 183.62 14.5799 183.091 14.038C182.561 13.4961 181.885 13.2226 181.063 13.2226C180.241 13.2226 179.559 13.4936 179.025 14.038C178.491 14.5824 178.221 15.3082 178.221 16.2205C178.221 17.1328 178.488 17.8611 179.025 18.403C179.559 18.9474 180.241 19.2184 181.063 19.2184C181.885 19.2184 182.561 18.9474 183.091 18.403Z" fill="#2E96FF"/>
<path d="M206.77 11.8447C207.587 12.6427 207.997 13.8408 207.997 15.4367V21.6337H204.783V15.9189C204.783 15.0613 204.6 14.42 204.239 13.9974C203.875 13.5748 203.356 13.3635 202.685 13.3635C201.929 13.3635 201.331 13.6022 200.894 14.077C200.453 14.5542 200.235 15.2602 200.235 16.1998V21.6312H197.021V15.9164C197.021 14.2137 196.322 13.361 194.92 13.361C194.18 13.361 193.59 13.5997 193.149 14.0745C192.709 14.5517 192.49 15.2577 192.49 16.1973V21.6288H189.277V10.8032H192.345V12.051C192.758 11.5961 193.261 11.2456 193.859 11.0045C194.457 10.7634 195.111 10.6416 195.826 10.6416C196.609 10.6416 197.314 10.7932 197.948 11.094C198.578 11.3948 199.087 11.8348 199.471 12.4115C199.924 11.8472 200.497 11.4122 201.191 11.104C201.883 10.7957 202.644 10.6416 203.466 10.6416C204.852 10.6466 205.954 11.0468 206.77 11.8447Z" fill="#2E96FF"/>
<path d="M33.5441 7.63632V7.62887L22.7624 0.604045V0.609016C22.1874 0.226205 21.4954 0 20.75 0C18.7733 0 17.168 1.57102 17.168 3.49998C17.168 5.36432 18.5214 6.41332 19.8774 7.34549C21.2308 8.28014 22.5843 9.09796 22.5843 10.4999C22.5843 13.3039 17.168 13.7737 17.168 17.4999C17.168 19.4289 18.7733 20.9999 20.75 20.9999C21.5005 20.9999 22.2001 20.7712 22.7751 20.3809V20.3834L33.4678 13.4183C33.483 13.4083 33.5008 13.3984 33.5161 13.3859L33.5594 13.3586V13.3536C34.4752 12.7197 35.0756 11.6782 35.0756 10.4999C35.0756 9.31671 34.4701 8.26771 33.5441 7.63632ZM32.3306 11.7528L21.7091 18.6757C21.6786 18.6931 21.6455 18.713 21.615 18.7353C21.358 18.9069 21.0578 18.9988 20.75 18.9988C19.9028 18.9988 19.2159 18.3252 19.2159 17.4999C19.2159 16.692 19.7705 16.1675 21.3377 15.0962C22.8056 14.0919 24.6322 12.844 24.6322 10.4999C24.6322 8.15585 22.8056 6.90799 21.3377 5.90373C19.7705 4.83236 19.2159 4.31035 19.2159 3.49749C19.2159 2.67221 19.9054 2.00106 20.75 2.00106C21.0578 2.00106 21.3529 2.09054 21.6074 2.25958C21.6455 2.28443 21.6862 2.30929 21.7091 2.3242L32.2924 9.21728C32.3179 9.23717 32.3433 9.25457 32.3687 9.27197C32.7834 9.55535 33.0276 10.0152 33.0276 10.4999C33.0276 10.9822 32.7834 11.4396 32.3764 11.723L32.3306 11.7528Z" fill="#FF0051"/>
<path d="M15.2008 20.6544C13.8448 19.7197 12.4913 18.9019 12.4913 17.4999C12.4913 14.696 17.9076 14.2262 17.9076 10.5C17.9076 8.57101 16.3023 7 14.3256 7C13.5751 7 12.8755 7.22869 12.298 7.61896V7.61647L1.60785 14.5816C1.59258 14.5916 1.57477 14.6015 1.55951 14.6139L1.51626 14.6413V14.6463C0.600398 15.2801 0 16.3217 0 17.4999C0 18.6832 0.605485 19.7322 1.52898 20.366V20.371L12.3133 27.3958V27.3909C12.8882 27.7737 13.5802 27.9999 14.3256 27.9999C16.3023 27.9999 17.9076 26.4289 17.9076 24.4999C17.9076 22.6356 16.5542 21.5866 15.2008 20.6544ZM14.3256 25.9988C14.0178 25.9988 13.7227 25.9093 13.4683 25.7403C13.4301 25.713 13.3894 25.6906 13.3665 25.6757L2.7832 18.7826C2.75776 18.7652 2.73232 18.7453 2.70688 18.7279C2.2922 18.4445 2.04542 17.9847 2.04542 17.4999C2.04542 17.0177 2.28965 16.5603 2.69925 16.2769L2.74504 16.2471L13.3665 9.3242C13.3996 9.3068 13.4301 9.28443 13.4606 9.26455C13.7176 9.09303 14.0178 9.00105 14.3256 9.00105C15.1728 9.00105 15.8597 9.6747 15.8597 10.5C15.8597 11.3103 15.3051 11.8324 13.7379 12.9037C12.27 13.908 10.4434 15.1558 10.4434 17.4999C10.4434 19.844 12.27 21.0919 13.7379 22.0962C15.3051 23.1675 15.8597 23.6895 15.8597 24.5024C15.8571 25.3277 15.1702 25.9988 14.3256 25.9988Z" fill="#2E96FF"/>
</svg>
